<svg width="680" height="146" viewBox="0 0 680 146" fill="none" xmlns="http://www.w3.org/2000/svg">
<g filter="url(#filter0_d_49_2)">
<mask id="path-1-outside-1_49_2" maskUnits="userSpaceOnUse" x="10" y="0" width="670" height="136" fill="black">
<rect fill="white" x="10" width="670" height="136"/>
<path d="M59.4688 127.312C49.5469 127.312 40.4844 118.094 37.75 94.2656C35.1719 72.3125 23.0625 31.6875 14 13.6406C36.3438 13.9531 46.4219 12.3906 53.0625 39.5C58.2969 60.8281 59.7031 74.8125 66.4219 97.1562C68.375 103.562 71.5781 111.453 74.9375 111.453C76.9688 111.453 79.0781 108.484 80.9531 100.516C83.375 90.2031 84.9375 74.4219 84.9375 60.5156C84.9375 53.1719 84.4688 46.375 83.6094 41.2188C82.0469 32.3125 79.4688 11.375 68.8438 11.375C67.5156 11.375 66.1094 11.6875 64.5469 12.3906C68.5312 5.67188 75.6406 2.39062 82.9062 2.39062C94.0781 2.39062 106.5 10.2031 106.5 26.2188C106.5 41.0625 97.2031 79.0312 86.6562 103.719C80.7188 117.469 69.625 127.312 59.4688 127.312ZM144.469 127.078H108.844C114 109.812 116.578 88.9531 116.578 68.25C116.578 48.7969 114.391 29.5 110.094 13.1719H143.297C139 29.5 136.734 48.875 136.734 68.3281C136.734 88.9531 139.312 109.734 144.469 127.078ZM213.609 131.453C210.484 131.453 207.047 130.906 203.219 129.891C208.688 124.812 213.922 110.125 213.922 98.7188C213.922 90.3594 211.266 84.1875 204 84.1094C194.312 84.1094 180.797 97 180.797 117.703C180.797 120.672 181.031 123.797 181.656 127.078L170.797 127L149.156 127.078C153.609 119.734 155.328 98.875 155.328 76.8438C155.328 50.6719 152.906 22.7812 149.859 13.6406C153.688 14.0312 157.438 14.1875 161.109 14.1875C172.75 14.1875 183.688 12.7812 195.016 12.7812C209.469 12.7812 230.641 19.1094 230.641 34.2656C230.641 46.375 215.484 61.6094 202.906 75.5156C205.719 74.4219 208.609 73.875 211.344 73.875C226.891 73.875 237.203 89.9688 237.203 105.516C237.203 118.875 229.859 131.453 213.609 131.453ZM178.375 104.734C183.609 73.3281 202.984 72.0781 203.375 31.8438C203.375 20.6719 200.016 15.9844 195.797 15.9844C190.953 15.9844 184.938 22.1562 181.656 31.9219C178.141 42.1562 177.125 56.7656 177.125 71.6094C177.125 83.0938 177.75 94.7344 178.375 104.734ZM281.344 133.328C256.578 133.328 239.625 101.453 239.625 74.8125C239.625 71.6094 239.859 68.4062 240.328 65.4375C244 44.3438 259.625 36.2969 259.625 18.875C259.625 15.9062 259.156 12.5469 258.062 8.875C262.906 13.4062 277.672 16.9219 292.047 16.9219C303.688 16.9219 315.016 14.6562 320.562 8.71875C322.359 11.8438 323.141 15.2812 323.141 18.7969C323.141 31.0625 312.828 43.7969 297.203 43.7969C291.578 43.7969 285.25 42.1562 278.453 38.25C273.844 35.6719 269.703 33.7188 266.266 33.7188C261.812 33.7188 258.453 37 256.891 46.375C256.188 50.5938 255.875 54.5781 255.875 58.3281C255.875 89.3438 278.141 104.266 296.109 104.266C299.312 104.266 302.438 103.797 305.25 102.859C317.125 98.7969 321.5 92.0781 321.5 85.9844C321.5 78.7188 315.094 72.2344 307.594 72.2344C300.484 72.2344 292.281 78.1719 287.828 94.9688H287.203C278.219 94.9688 270.094 85.2812 270.094 75.6719C270.094 70.5938 272.359 65.4375 277.906 61.7656C283.219 58.1719 290.797 56.2969 298.375 56.2969C312.75 56.2969 327.281 63.1719 327.281 78.0938V86.0625C327.281 97.2344 327.828 109.734 332.828 118.953C328.609 117.469 325.094 116.844 322.125 116.844C308.844 116.844 304.859 129.109 287.438 132.703C285.406 133.172 283.375 133.328 281.344 133.328ZM371.969 127.078H336.344C341.5 109.812 344.078 88.9531 344.078 68.25C344.078 48.7969 341.891 29.5 337.594 13.1719H370.797C366.5 29.5 364.234 48.875 364.234 68.3281C364.234 88.9531 366.812 109.734 371.969 127.078ZM439.234 131.297C425.328 131.297 407.125 126.062 388.531 126.062C384.547 126.062 380.562 126.297 376.656 126.844C379.938 120.359 382.516 87.9375 382.516 59.1094C382.516 38.1719 381.188 19.1094 377.828 13.1719H416.422C406.031 25.0469 401.578 46.0625 401.578 66.5312C401.578 87.7812 406.422 108.562 414.547 118.094C419.703 124.109 425.875 126.609 431.422 126.609C440.016 126.609 447.203 120.75 447.203 112.703C447.203 107.547 444.234 101.453 436.578 95.5156C431.422 91.4531 425.953 88.6406 420.25 84.2656C412.828 78.3281 409.391 71.4531 409.391 65.2031C409.391 55.2812 417.984 47.0781 432.75 47.0781C436.578 47.0781 440.875 47.625 445.562 48.875C440.172 55.6719 438.141 62.1562 438.141 68.3281C438.141 88.5625 460.797 105.047 460.797 117.781C460.797 121.375 459 124.656 454.547 127.625C450.406 130.281 445.172 131.297 439.234 131.297ZM527.359 131.297C513.453 131.297 495.25 126.062 476.656 126.062C472.672 126.062 468.688 126.297 464.781 126.844C468.062 120.359 470.641 87.9375 470.641 59.1094C470.641 38.1719 469.312 19.1094 465.953 13.1719H504.547C494.156 25.0469 489.703 46.0625 489.703 66.5312C489.703 87.7812 494.547 108.562 502.672 118.094C507.828 124.109 514 126.609 519.547 126.609C528.141 126.609 535.328 120.75 535.328 112.703C535.328 107.547 532.359 101.453 524.703 95.5156C519.547 91.4531 514.078 88.6406 508.375 84.2656C500.953 78.3281 497.516 71.4531 497.516 65.2031C497.516 55.2812 506.109 47.0781 520.875 47.0781C524.703 47.0781 529 47.625 533.688 48.875C528.297 55.6719 526.266 62.1562 526.266 68.3281C526.266 88.5625 548.922 105.047 548.922 117.781C548.922 121.375 547.125 124.656 542.672 127.625C538.531 130.281 533.297 131.297 527.359 131.297ZM582.516 127.156H582.047C574.078 126.219 571.656 125.75 569.312 125.75C566.969 125.75 564.625 126.219 556.656 127.156H556.188C554 127.156 552.906 125.281 552.906 123.406C552.906 120.984 554.156 119.578 556.656 119.578C564.625 120.516 566.969 120.984 569.312 120.984C571.656 120.984 574.078 120.516 582.047 119.578H582.516C584.703 119.578 585.875 121.453 585.875 123.328C585.875 125.281 584.703 127.156 582.516 127.156ZM644.234 127.156C641.109 127.156 637.828 126.766 634.703 125.984C608.609 119.578 593.688 95.4375 593.688 70.9844C593.688 68.25 593.922 65.5156 594.312 62.7812C597.047 43.0938 612.125 35.3594 612.125 19.5C612.125 16.2969 611.5 12.7812 610.016 8.79688C613.688 11.9219 633.062 16.4531 648.922 16.4531C651.344 16.4531 653.609 16.375 655.797 16.1406C655.797 16.1406 668.141 15.2812 674.469 8.71875C676.656 11.9219 677.594 15.5156 677.594 19.1875C677.594 30.5938 667.672 42.0781 651.891 42.0781C646.031 42.0781 639.469 40.5156 632.281 36.8438C627.516 34.3438 623.141 32.5469 619.625 32.5469C613.922 32.5469 610.094 37.9375 610.094 49.5781C610.094 59.6562 613.531 72.3906 620.25 82.625C619.078 79.1094 618.453 75.5938 618.453 72.2344C618.453 62.8594 623.453 55.2812 635.406 55.2812C636.734 55.2812 638.141 55.3594 639.625 55.5156C645.875 56.375 652.359 59.0312 658.453 59.0312C662.984 59.0312 667.438 57.5469 671.422 52.7031C672.438 56.6875 672.984 60.0469 672.984 62.9375C672.984 72.1562 667.984 76.2969 660.719 76.2969C654 76.2969 645.328 72.7031 636.891 66.2969C633.297 63.5625 630.484 62.4688 628.297 62.4688C624.625 62.4688 622.828 65.8281 622.828 70.5938C622.828 74.2656 623.844 78.7188 625.875 83.0938C631.5 95.5938 640.406 100.828 650.797 100.828C657.594 100.828 665.094 98.4844 672.672 94.4219C673.297 97.1562 673.609 99.6562 673.609 102.078C673.609 118.406 659.469 127.156 644.234 127.156Z"/>
</mask>
<path d="M59.4688 127.312C49.5469 127.312 40.4844 118.094 37.75 94.2656C35.1719 72.3125 23.0625 31.6875 14 13.6406C36.3438 13.9531 46.4219 12.3906 53.0625 39.5C58.2969 60.8281 59.7031 74.8125 66.4219 97.1562C68.375 103.562 71.5781 111.453 74.9375 111.453C76.9688 111.453 79.0781 108.484 80.9531 100.516C83.375 90.2031 84.9375 74.4219 84.9375 60.5156C84.9375 53.1719 84.4688 46.375 83.6094 41.2188C82.0469 32.3125 79.4688 11.375 68.8438 11.375C67.5156 11.375 66.1094 11.6875 64.5469 12.3906C68.5312 5.67188 75.6406 2.39062 82.9062 2.39062C94.0781 2.39062 106.5 10.2031 106.5 26.2188C106.5 41.0625 97.2031 79.0312 86.6562 103.719C80.7188 117.469 69.625 127.312 59.4688 127.312ZM144.469 127.078H108.844C114 109.812 116.578 88.9531 116.578 68.25C116.578 48.7969 114.391 29.5 110.094 13.1719H143.297C139 29.5 136.734 48.875 136.734 68.3281C136.734 88.9531 139.312 109.734 144.469 127.078ZM213.609 131.453C210.484 131.453 207.047 130.906 203.219 129.891C208.688 124.812 213.922 110.125 213.922 98.7188C213.922 90.3594 211.266 84.1875 204 84.1094C194.312 84.1094 180.797 97 180.797 117.703C180.797 120.672 181.031 123.797 181.656 127.078L170.797 127L149.156 127.078C153.609 119.734 155.328 98.875 155.328 76.8438C155.328 50.6719 152.906 22.7812 149.859 13.6406C153.688 14.0312 157.438 14.1875 161.109 14.1875C172.75 14.1875 183.688 12.7812 195.016 12.7812C209.469 12.7812 230.641 19.1094 230.641 34.2656C230.641 46.375 215.484 61.6094 202.906 75.5156C205.719 74.4219 208.609 73.875 211.344 73.875C226.891 73.875 237.203 89.9688 237.203 105.516C237.203 118.875 229.859 131.453 213.609 131.453ZM178.375 104.734C183.609 73.3281 202.984 72.0781 203.375 31.8438C203.375 20.6719 200.016 15.9844 195.797 15.9844C190.953 15.9844 184.938 22.1562 181.656 31.9219C178.141 42.1562 177.125 56.7656 177.125 71.6094C177.125 83.0938 177.75 94.7344 178.375 104.734ZM281.344 133.328C256.578 133.328 239.625 101.453 239.625 74.8125C239.625 71.6094 239.859 68.4062 240.328 65.4375C244 44.3438 259.625 36.2969 259.625 18.875C259.625 15.9062 259.156 12.5469 258.062 8.875C262.906 13.4062 277.672 16.9219 292.047 16.9219C303.688 16.9219 315.016 14.6562 320.562 8.71875C322.359 11.8438 323.141 15.2812 323.141 18.7969C323.141 31.0625 312.828 43.7969 297.203 43.7969C291.578 43.7969 285.25 42.1562 278.453 38.25C273.844 35.6719 269.703 33.7188 266.266 33.7188C261.812 33.7188 258.453 37 256.891 46.375C256.188 50.5938 255.875 54.5781 255.875 58.3281C255.875 89.3438 278.141 104.266 296.109 104.266C299.312 104.266 302.438 103.797 305.25 102.859C317.125 98.7969 321.5 92.0781 321.5 85.9844C321.5 78.7188 315.094 72.2344 307.594 72.2344C300.484 72.2344 292.281 78.1719 287.828 94.9688H287.203C278.219 94.9688 270.094 85.2812 270.094 75.6719C270.094 70.5938 272.359 65.4375 277.906 61.7656C283.219 58.1719 290.797 56.2969 298.375 56.2969C312.75 56.2969 327.281 63.1719 327.281 78.0938V86.0625C327.281 97.2344 327.828 109.734 332.828 118.953C328.609 117.469 325.094 116.844 322.125 116.844C308.844 116.844 304.859 129.109 287.438 132.703C285.406 133.172 283.375 133.328 281.344 133.328ZM371.969 127.078H336.344C341.5 109.812 344.078 88.9531 344.078 68.25C344.078 48.7969 341.891 29.5 337.594 13.1719H370.797C366.5 29.5 364.234 48.875 364.234 68.3281C364.234 88.9531 366.812 109.734 371.969 127.078ZM439.234 131.297C425.328 131.297 407.125 126.062 388.531 126.062C384.547 126.062 380.562 126.297 376.656 126.844C379.938 120.359 382.516 87.9375 382.516 59.1094C382.516 38.1719 381.188 19.1094 377.828 13.1719H416.422C406.031 25.0469 401.578 46.0625 401.578 66.5312C401.578 87.7812 406.422 108.562 414.547 118.094C419.703 124.109 425.875 126.609 431.422 126.609C440.016 126.609 447.203 120.75 447.203 112.703C447.203 107.547 444.234 101.453 436.578 95.5156C431.422 91.4531 425.953 88.6406 420.25 84.2656C412.828 78.3281 409.391 71.4531 409.391 65.2031C409.391 55.2812 417.984 47.0781 432.75 47.0781C436.578 47.0781 440.875 47.625 445.562 48.875C440.172 55.6719 438.141 62.1562 438.141 68.3281C438.141 88.5625 460.797 105.047 460.797 117.781C460.797 121.375 459 124.656 454.547 127.625C450.406 130.281 445.172 131.297 439.234 131.297ZM527.359 131.297C513.453 131.297 495.25 126.062 476.656 126.062C472.672 126.062 468.688 126.297 464.781 126.844C468.062 120.359 470.641 87.9375 470.641 59.1094C470.641 38.1719 469.312 19.1094 465.953 13.1719H504.547C494.156 25.0469 489.703 46.0625 489.703 66.5312C489.703 87.7812 494.547 108.562 502.672 118.094C507.828 124.109 514 126.609 519.547 126.609C528.141 126.609 535.328 120.75 535.328 112.703C535.328 107.547 532.359 101.453 524.703 95.5156C519.547 91.4531 514.078 88.6406 508.375 84.2656C500.953 78.3281 497.516 71.4531 497.516 65.2031C497.516 55.2812 506.109 47.0781 520.875 47.0781C524.703 47.0781 529 47.625 533.688 48.875C528.297 55.6719 526.266 62.1562 526.266 68.3281C526.266 88.5625 548.922 105.047 548.922 117.781C548.922 121.375 547.125 124.656 542.672 127.625C538.531 130.281 533.297 131.297 527.359 131.297ZM582.516 127.156H582.047C574.078 126.219 571.656 125.75 569.312 125.75C566.969 125.75 564.625 126.219 556.656 127.156H556.188C554 127.156 552.906 125.281 552.906 123.406C552.906 120.984 554.156 119.578 556.656 119.578C564.625 120.516 566.969 120.984 569.312 120.984C571.656 120.984 574.078 120.516 582.047 119.578H582.516C584.703 119.578 585.875 121.453 585.875 123.328C585.875 125.281 584.703 127.156 582.516 127.156ZM644.234 127.156C641.109 127.156 637.828 126.766 634.703 125.984C608.609 119.578 593.688 95.4375 593.688 70.9844C593.688 68.25 593.922 65.5156 594.312 62.7812C597.047 43.0938 612.125 35.3594 612.125 19.5C612.125 16.2969 611.5 12.7812 610.016 8.79688C613.688 11.9219 633.062 16.4531 648.922 16.4531C651.344 16.4531 653.609 16.375 655.797 16.1406C655.797 16.1406 668.141 15.2812 674.469 8.71875C676.656 11.9219 677.594 15.5156 677.594 19.1875C677.594 30.5938 667.672 42.0781 651.891 42.0781C646.031 42.0781 639.469 40.5156 632.281 36.8438C627.516 34.3438 623.141 32.5469 619.625 32.5469C613.922 32.5469 610.094 37.9375 610.094 49.5781C610.094 59.6562 613.531 72.3906 620.25 82.625C619.078 79.1094 618.453 75.5938 618.453 72.2344C618.453 62.8594 623.453 55.2812 635.406 55.2812C636.734 55.2812 638.141 55.3594 639.625 55.5156C645.875 56.375 652.359 59.0312 658.453 59.0312C662.984 59.0312 667.438 57.5469 671.422 52.7031C672.438 56.6875 672.984 60.0469 672.984 62.9375C672.984 72.1562 667.984 76.2969 660.719 76.2969C654 76.2969 645.328 72.7031 636.891 66.2969C633.297 63.5625 630.484 62.4688 628.297 62.4688C624.625 62.4688 622.828 65.8281 622.828 70.5938C622.828 74.2656 623.844 78.7188 625.875 83.0938C631.5 95.5938 640.406 100.828 650.797 100.828C657.594 100.828 665.094 98.4844 672.672 94.4219C673.297 97.1562 673.609 99.6562 673.609 102.078C673.609 118.406 659.469 127.156 644.234 127.156Z" fill="#FEFAE0"/>
<path d="M37.75 94.2656L39.737 94.0376L39.7363 94.0324L37.75 94.2656ZM14 13.6406L14.028 11.6408L10.7346 11.5948L12.2127 14.5381L14 13.6406ZM53.0625 39.5L51.1199 39.9758L51.1201 39.9767L53.0625 39.5ZM66.4219 97.1562L64.5066 97.7322L64.5088 97.7395L66.4219 97.1562ZM80.9531 100.516L82.9 100.974L82.9002 100.973L80.9531 100.516ZM83.6094 41.2188L85.5822 40.89L85.5808 40.8815L85.5793 40.8732L83.6094 41.2188ZM64.5469 12.3906L62.8266 11.3705L59.6012 16.8093L65.3676 14.2145L64.5469 12.3906ZM86.6562 103.719L88.4924 104.512L88.4954 104.504L86.6562 103.719ZM59.4688 127.312V125.312C55.2199 125.312 51.0469 123.375 47.5308 118.547C43.9644 113.65 41.0833 105.77 39.737 94.0376L37.75 94.2656L35.763 94.4936C37.1511 106.589 40.1684 115.233 44.2974 120.902C48.4765 126.64 53.7958 129.312 59.4688 129.312V127.312ZM37.75 94.2656L39.7363 94.0324C38.428 82.8911 34.7201 67.1217 30.2245 51.9211C25.7305 36.7255 20.398 21.9247 15.7873 12.7431L14 13.6406L12.2127 14.5381C16.6645 23.4035 21.918 37.9385 26.3888 53.0555C30.858 68.1673 34.4939 83.687 35.7637 94.4989L37.75 94.2656ZM14 13.6406L13.972 15.6404C19.628 15.7195 24.3353 15.6802 28.4432 15.9949C32.5275 16.3078 35.7955 16.9605 38.5335 18.3143C43.8521 20.944 47.8363 26.5708 51.1199 39.9758L53.0625 39.5L55.0051 39.0242C51.6481 25.3198 47.2729 18.1732 40.3064 14.7287C36.9018 13.0453 33.0457 12.3358 28.7487 12.0066C24.4752 11.6792 19.5439 11.718 14.028 11.6408L14 13.6406ZM53.0625 39.5L51.1201 39.9767C53.7256 50.5928 55.3736 59.3601 57.2267 68.351C59.0782 77.3343 61.1232 86.4805 64.5066 97.7322L66.4219 97.1562L68.3372 96.5803C65.0018 85.4883 62.9843 76.4704 61.1444 67.5435C59.3061 58.6243 57.6338 49.7353 55.0049 39.0233L53.0625 39.5ZM66.4219 97.1562L64.5088 97.7395C65.4996 100.989 66.832 104.703 68.3839 107.641C69.156 109.103 70.0334 110.472 71.019 111.502C71.9731 112.5 73.2935 113.453 74.9375 113.453V111.453V109.453C74.9018 109.453 74.5621 109.42 73.9097 108.738C73.2889 108.089 72.6135 107.085 71.9208 105.773C70.543 103.164 69.2973 99.7294 68.3349 96.573L66.4219 97.1562ZM74.9375 111.453V113.453C77.0519 113.453 78.6089 111.902 79.7308 109.982C80.8948 107.989 81.9457 105.029 82.9 100.974L80.9531 100.516L79.0063 100.058C78.0855 103.971 77.1442 106.479 76.2771 107.964C75.8464 108.701 75.4851 109.096 75.2351 109.292C75.116 109.386 75.0351 109.424 74.9946 109.439C74.9576 109.453 74.9419 109.453 74.9375 109.453V111.453ZM80.9531 100.516L82.9002 100.973C85.3665 90.4711 86.9375 74.5292 86.9375 60.5156H84.9375H82.9375C82.9375 74.3145 81.3835 89.9352 79.0061 100.058L80.9531 100.516ZM84.9375 60.5156H86.9375C86.9375 53.1018 86.4652 46.1883 85.5822 40.89L83.6094 41.2188L81.6366 41.5475C82.4723 46.5617 82.9375 53.242 82.9375 60.5156H84.9375ZM83.6094 41.2188L85.5793 40.8732C84.8174 36.5306 83.7507 28.8489 81.5177 22.3106C80.3997 19.0373 78.9356 15.8764 76.9469 13.5016C74.9253 11.0874 72.2547 9.375 68.8438 9.375V11.375V13.375C70.7453 13.375 72.3813 14.2798 73.8802 16.0697C75.412 17.899 76.6823 20.5291 77.7323 23.6034C79.8352 29.7605 80.8388 37.0006 81.6395 41.5643L83.6094 41.2188ZM68.8438 11.375V9.375C67.1872 9.375 65.5017 9.76777 63.7261 10.5668L64.5469 12.3906L65.3676 14.2145C66.717 13.6072 67.844 13.375 68.8438 13.375V11.375ZM64.5469 12.3906L66.2671 13.4108C69.8351 7.39413 76.2293 4.39062 82.9062 4.39062V2.39062V0.390625C75.0519 0.390625 67.2274 3.94962 62.8266 11.3705L64.5469 12.3906ZM82.9062 2.39062V4.39062C93.2248 4.39062 104.5 11.5432 104.5 26.2188H106.5H108.5C108.5 8.86306 94.9315 0.390625 82.9062 0.390625V2.39062ZM106.5 26.2188H104.5C104.5 33.374 102.233 46.3705 98.594 60.788C94.9685 75.1537 90.0379 90.7125 84.8171 102.933L86.6562 103.719L88.4954 104.504C93.8215 92.0375 98.8127 76.2682 102.472 61.7667C106.119 47.317 108.5 33.9072 108.5 26.2188H106.5ZM86.6562 103.719L84.8201 102.926C81.9567 109.557 77.8664 115.202 73.3288 119.166C68.7715 123.146 63.9081 125.312 59.4688 125.312V127.312V129.312C65.1856 129.312 70.9473 126.557 75.9602 122.178C80.993 117.782 85.4183 111.631 88.4924 104.512L86.6562 103.719ZM144.469 127.078V129.078H147.15L146.386 126.508L144.469 127.078ZM108.844 127.078L106.927 126.506L106.159 129.078H108.844V127.078ZM110.094 13.1719V11.1719H107.499L108.16 13.6809L110.094 13.1719ZM143.297 13.1719L145.231 13.6809L145.891 11.1719H143.297V13.1719ZM144.469 127.078V125.078H108.844V127.078V129.078H144.469V127.078ZM108.844 127.078L110.76 127.65C115.984 110.159 118.578 89.1002 118.578 68.25H116.578H114.578C114.578 88.806 112.016 109.466 106.927 126.506L108.844 127.078ZM116.578 68.25H118.578C118.578 48.6606 116.377 29.1883 112.028 12.6629L110.094 13.1719L108.16 13.6809C112.405 29.8117 114.578 48.9332 114.578 68.25H116.578ZM110.094 13.1719V15.1719H143.297V13.1719V11.1719H110.094V13.1719ZM143.297 13.1719L141.363 12.6629C137.015 29.184 134.734 48.7334 134.734 68.3281H136.734H138.734C138.734 49.0166 140.985 29.816 145.231 13.6809L143.297 13.1719ZM136.734 68.3281H134.734C134.734 89.102 137.329 110.081 142.552 127.648L144.469 127.078L146.386 126.508C141.296 109.387 138.734 88.8043 138.734 68.3281H136.734ZM203.219 129.891L201.858 128.425L199.2 130.893L202.706 131.824L203.219 129.891ZM204 84.1094L204.022 82.1095L204.011 82.1094H204V84.1094ZM181.656 127.078L181.642 129.078L184.076 129.096L183.621 126.704L181.656 127.078ZM170.797 127L170.811 125L170.8 125L170.79 125L170.797 127ZM149.156 127.078L147.446 126.041L145.597 129.091L149.163 129.078L149.156 127.078ZM149.859 13.6406L150.062 11.651L146.983 11.3368L147.962 14.2731L149.859 13.6406ZM202.906 75.5156L201.423 74.174L203.631 77.3796L202.906 75.5156ZM178.375 104.734L176.379 104.859L180.348 105.063L178.375 104.734ZM203.375 31.8438L205.375 31.8632L205.375 31.8535V31.8438H203.375ZM181.656 31.9219L183.548 32.5716L183.552 32.5589L181.656 31.9219ZM213.609 131.453V129.453C210.711 129.453 207.454 128.945 203.732 127.958L203.219 129.891L202.706 131.824C206.64 132.868 210.258 133.453 213.609 133.453V131.453ZM203.219 129.891L204.58 131.356C207.677 128.48 210.485 123.163 212.51 117.334C214.558 111.442 215.922 104.694 215.922 98.7188H213.922H211.922C211.922 104.15 210.668 110.449 208.732 116.021C206.773 121.657 204.229 126.223 201.858 128.425L203.219 129.891ZM213.922 98.7188H215.922C215.922 94.3866 215.244 90.3251 213.397 87.273C211.461 84.0754 208.337 82.1559 204.022 82.1095L204 84.1094L203.978 86.1093C206.928 86.141 208.765 87.3465 209.975 89.3442C211.272 91.4874 211.922 94.6915 211.922 98.7188H213.922ZM204 84.1094V82.1094C198.336 82.1094 192.014 85.8037 187.196 91.9029C182.323 98.0724 178.797 106.909 178.797 117.703H180.797H182.797C182.797 107.794 186.029 99.8338 190.335 94.3823C194.697 88.8603 199.977 86.1094 204 86.1094V84.1094ZM180.797 117.703H178.797C178.797 120.778 179.04 124.03 179.692 127.452L181.656 127.078L183.621 126.704C183.023 123.563 182.797 120.565 182.797 117.703H180.797ZM181.656 127.078L181.671 125.078L170.811 125L170.797 127L170.782 129L181.642 129.078L181.656 127.078ZM170.797 127L170.79 125L149.149 125.078L149.156 127.078L149.163 129.078L170.804 129L170.797 127ZM149.156 127.078L150.866 128.115C152.141 126.014 153.141 123.095 153.946 119.689C154.758 116.251 155.401 112.181 155.9 107.689C156.897 98.7038 157.328 87.9019 157.328 76.8438H155.328H153.328C153.328 87.8169 152.9 98.4602 151.924 107.248C151.437 111.643 150.815 115.541 150.053 118.769C149.283 122.028 148.399 124.47 147.446 126.041L149.156 127.078ZM155.328 76.8438H157.328C157.328 63.7017 156.72 50.1285 155.729 38.6829C154.744 27.3136 153.365 17.8323 151.757 13.0082L149.859 13.6406L147.962 14.2731C149.401 18.5895 150.756 27.6239 151.744 39.0281C152.725 50.3559 153.328 63.8139 153.328 76.8438H155.328ZM149.859 13.6406L149.656 15.6303C153.562 16.0288 157.381 16.1875 161.109 16.1875V14.1875V12.1875C157.494 12.1875 153.813 12.0337 150.062 11.651L149.859 13.6406ZM161.109 14.1875V16.1875C167.002 16.1875 172.708 15.8315 178.305 15.4805C183.921 15.1282 189.425 14.7812 195.016 14.7812V12.7812V10.7812C189.278 10.7812 183.649 11.1374 178.054 11.4883C172.441 11.8404 166.857 12.1875 161.109 12.1875V14.1875ZM195.016 12.7812V14.7812C202.006 14.7812 210.598 16.3209 217.368 19.636C224.166 22.9647 228.641 27.8009 228.641 34.2656H230.641H232.641C232.641 25.5741 226.529 19.6681 219.128 16.0436C211.698 12.4057 202.478 10.7812 195.016 10.7812V12.7812ZM230.641 34.2656H228.641C228.641 39.5974 225.247 45.9625 219.897 53.0073C214.605 59.9777 207.766 67.1607 201.423 74.174L202.906 75.5156L204.39 76.8572C210.624 69.9643 217.653 62.577 223.083 55.4263C228.456 48.35 232.641 41.0432 232.641 34.2656H230.641ZM202.906 75.5156L203.631 77.3796C206.226 76.3705 208.872 75.875 211.344 75.875V73.875V71.875C208.347 71.875 205.211 72.4733 202.181 73.6516L202.906 75.5156ZM211.344 73.875V75.875C218.361 75.875 224.28 79.4913 228.509 85.0732C232.754 90.675 235.203 98.156 235.203 105.516H237.203H239.203C239.203 97.3284 236.496 88.9891 231.698 82.6573C226.884 76.3056 219.874 71.875 211.344 71.875V73.875ZM237.203 105.516H235.203C235.203 111.857 233.457 117.864 229.941 122.242C226.472 126.56 221.159 129.453 213.609 129.453V131.453V133.453C222.31 133.453 228.794 130.057 233.059 124.747C237.278 119.495 239.203 112.533 239.203 105.516H237.203ZM178.375 104.734L180.348 105.063C182.89 89.8129 188.796 82.002 194.408 72.6267C200.096 63.1233 205.175 52.408 205.375 31.8632L203.375 31.8438L201.375 31.8243C201.184 51.5139 196.381 61.5408 190.975 70.5725C185.493 79.7324 179.095 88.2496 176.402 104.406L178.375 104.734ZM203.375 31.8438H205.375C205.375 26.1058 204.52 21.7656 202.933 18.7848C201.301 15.7179 198.805 13.9844 195.797 13.9844V15.9844V17.9844C197.008 17.9844 198.301 18.5946 199.403 20.6644C200.55 22.8203 201.375 26.4099 201.375 31.8438H203.375ZM195.797 15.9844V13.9844C192.559 13.9844 189.348 15.9978 186.663 18.9436C183.924 21.9473 181.473 26.1875 179.76 31.2849L181.656 31.9219L183.552 32.5589C185.121 27.8906 187.318 24.162 189.619 21.6384C191.972 19.0569 194.191 17.9844 195.797 17.9844V15.9844ZM181.656 31.9219L179.765 31.2721C176.132 41.8472 175.125 56.7492 175.125 71.6094H177.125H179.125C179.125 56.782 180.149 42.4653 183.548 32.5716L181.656 31.9219ZM177.125 71.6094H175.125C175.125 83.1589 175.753 94.8508 176.379 104.859L178.375 104.734L180.371 104.61C179.747 94.618 179.125 83.0286 179.125 71.6094H177.125ZM240.328 65.4375L238.358 65.0945L238.355 65.11L238.353 65.1256L240.328 65.4375ZM258.062 8.875L259.429 7.41446L254.039 2.37199L256.146 9.44595L258.062 8.875ZM320.562 8.71875L322.296 7.72181L320.948 5.37659L319.101 7.35343L320.562 8.71875ZM278.453 38.25L279.45 36.516L279.44 36.5102L279.429 36.5045L278.453 38.25ZM305.25 102.859L305.882 104.757L305.89 104.754L305.897 104.752L305.25 102.859ZM287.828 94.9688V96.9688H289.367L289.761 95.4813L287.828 94.9688ZM277.906 61.7656L279.01 63.4333L279.019 63.4278L279.027 63.4222L277.906 61.7656ZM332.828 118.953L332.164 120.84L337.061 122.563L334.586 118L332.828 118.953ZM287.438 132.703L287.033 130.744L287.011 130.749L286.988 130.754L287.438 132.703ZM281.344 133.328V131.328C269.898 131.328 260.008 123.961 252.875 112.972C245.755 102.003 241.625 87.7531 241.625 74.8125H239.625H237.625C237.625 88.5125 241.972 103.521 249.52 115.149C257.055 126.758 268.024 135.328 281.344 135.328V133.328ZM239.625 74.8125H241.625C241.625 71.7031 241.853 68.6049 242.304 65.7494L240.328 65.4375L238.353 65.1256C237.866 68.2076 237.625 71.5156 237.625 74.8125H239.625ZM240.328 65.4375L242.298 65.7805C244.056 55.6817 248.655 48.7114 253.038 41.8568C257.389 35.0541 261.625 28.2357 261.625 18.875H259.625H257.625C257.625 26.9362 254.049 32.8522 249.669 39.7018C245.322 46.4996 240.272 54.0995 238.358 65.0945L240.328 65.4375ZM259.625 18.875H261.625C261.625 15.6967 261.123 12.145 259.979 8.30405L258.062 8.875L256.146 9.44595C257.189 12.9487 257.625 16.1158 257.625 18.875H259.625ZM258.062 8.875L256.696 10.3355C259.527 12.9833 264.879 15.0875 271.019 16.5437C277.269 18.026 284.709 18.9219 292.047 18.9219V16.9219V14.9219C285.01 14.9219 277.88 14.0599 271.942 12.6516C265.894 11.2172 261.442 9.2979 259.429 7.41446L258.062 8.875ZM292.047 16.9219V18.9219C297.983 18.9219 303.905 18.3456 309.098 16.9812C314.264 15.6239 318.89 13.4386 322.024 10.0841L320.562 8.71875L319.101 7.35343C316.688 9.93636 312.877 11.8526 308.082 13.1125C303.314 14.3653 297.752 14.9219 292.047 14.9219V16.9219ZM320.562 8.71875L318.829 9.71569C320.428 12.4973 321.141 15.5818 321.141 18.7969H323.141H325.141C325.141 14.9807 324.291 11.1902 322.296 7.72181L320.562 8.71875ZM323.141 18.7969H321.141C321.141 30.0343 311.649 41.7969 297.203 41.7969V43.7969V45.7969C314.008 45.7969 325.141 32.0907 325.141 18.7969H323.141ZM297.203 43.7969V41.7969C291.977 41.7969 285.989 40.274 279.45 36.516L278.453 38.25L277.457 39.984C284.511 44.0385 291.18 45.7969 297.203 45.7969V43.7969ZM278.453 38.25L279.429 36.5045C277.102 35.2027 274.823 34.0186 272.658 33.1588C270.504 32.3034 268.342 31.7188 266.266 31.7188V33.7188V35.7188C267.627 35.7188 269.254 36.1106 271.182 36.8764C273.099 37.6376 275.195 38.7192 277.477 39.9955L278.453 38.25ZM266.266 33.7188V31.7188C263.457 31.7188 260.919 32.7956 258.932 35.2828C257.031 37.662 255.723 41.2169 254.918 46.0462L256.891 46.375L258.863 46.7038C259.621 42.1581 260.774 39.3849 262.057 37.7797C263.253 36.2825 264.621 35.7188 266.266 35.7188V33.7188ZM256.891 46.375L254.918 46.0462C254.197 50.3721 253.875 54.4665 253.875 58.3281H255.875H257.875C257.875 54.6898 258.178 50.8154 258.863 46.7038L256.891 46.375ZM255.875 58.3281H253.875C253.875 90.4981 277.087 106.266 296.109 106.266V104.266V102.266C279.195 102.266 257.875 88.1894 257.875 58.3281H255.875ZM296.109 104.266V106.266C299.502 106.266 302.843 105.77 305.882 104.757L305.25 102.859L304.618 100.962C302.032 101.824 299.123 102.266 296.109 102.266V104.266ZM305.25 102.859L305.897 104.752C318.258 100.523 323.5 93.2313 323.5 85.9844H321.5H319.5C319.5 90.925 315.992 97.0707 304.603 100.967L305.25 102.859ZM321.5 85.9844H323.5C323.5 77.6069 316.191 70.2344 307.594 70.2344V72.2344V74.2344C313.996 74.2344 319.5 79.8306 319.5 85.9844H321.5ZM307.594 72.2344V70.2344C299.145 70.2344 290.447 77.2852 285.895 94.4562L287.828 94.9688L289.761 95.4813C294.115 79.0585 301.824 74.2344 307.594 74.2344V72.2344ZM287.828 94.9688V92.9688H287.203V94.9688V96.9688H287.828V94.9688ZM287.203 94.9688V92.9688C283.439 92.9688 279.673 90.9245 276.788 87.6106C273.909 84.3037 272.094 79.9339 272.094 75.6719H270.094H268.094C268.094 81.0192 270.341 86.2979 273.771 90.2371C277.194 94.1692 281.983 96.9688 287.203 96.9688V94.9688ZM270.094 75.6719H272.094C272.094 71.2444 274.04 66.7237 279.01 63.4333L277.906 61.7656L276.802 60.0979C270.679 64.1513 268.094 69.9431 268.094 75.6719H270.094ZM277.906 61.7656L279.027 63.4222C283.92 60.1124 291.073 58.2969 298.375 58.2969V56.2969V54.2969C290.52 54.2969 282.518 56.2313 276.786 60.1091L277.906 61.7656ZM298.375 56.2969V58.2969C305.283 58.2969 312.097 59.9551 317.117 63.2688C322.066 66.5355 325.281 71.3954 325.281 78.0938H327.281H329.281C329.281 69.8702 325.231 63.8317 319.321 59.9304C313.481 56.0762 305.842 54.2969 298.375 54.2969V56.2969ZM327.281 78.0938H325.281V86.0625H327.281H329.281V78.0938H327.281ZM327.281 86.0625H325.281C325.281 97.18 325.795 110.181 331.07 119.907L332.828 118.953L334.586 118C329.861 109.288 329.281 97.2888 329.281 86.0625H327.281ZM332.828 118.953L333.492 117.067C329.116 115.527 325.373 114.844 322.125 114.844V116.844V118.844C324.815 118.844 328.102 119.411 332.164 120.84L332.828 118.953ZM322.125 116.844V114.844C314.766 114.844 309.971 118.308 305.158 121.808C300.334 125.317 295.285 129.042 287.033 130.744L287.438 132.703L287.842 134.662C297.011 132.77 302.666 128.566 307.51 125.043C312.365 121.513 316.203 118.844 322.125 118.844V116.844ZM287.438 132.703L286.988 130.754C285.146 131.179 283.274 131.328 281.344 131.328V133.328V135.328C283.476 135.328 285.666 135.164 287.887 134.652L287.438 132.703ZM371.969 127.078V129.078H374.65L373.886 126.508L371.969 127.078ZM336.344 127.078L334.427 126.506L333.659 129.078H336.344V127.078ZM337.594 13.1719V11.1719H334.999L335.66 13.6809L337.594 13.1719ZM370.797 13.1719L372.731 13.6809L373.391 11.1719H370.797V13.1719ZM371.969 127.078V125.078H336.344V127.078V129.078H371.969V127.078ZM336.344 127.078L338.26 127.65C343.484 110.159 346.078 89.1002 346.078 68.25H344.078H342.078C342.078 88.806 339.516 109.466 334.427 126.506L336.344 127.078ZM344.078 68.25H346.078C346.078 48.6606 343.877 29.1883 339.528 12.6629L337.594 13.1719L335.66 13.6809C339.905 29.8117 342.078 48.9332 342.078 68.25H344.078ZM337.594 13.1719V15.1719H370.797V13.1719V11.1719H337.594V13.1719ZM370.797 13.1719L368.863 12.6629C364.515 29.184 362.234 48.7334 362.234 68.3281H364.234H366.234C366.234 49.0166 368.485 29.816 372.731 13.6809L370.797 13.1719ZM364.234 68.3281H362.234C362.234 89.102 364.829 110.081 370.052 127.648L371.969 127.078L373.886 126.508C368.796 109.387 366.234 88.8043 366.234 68.3281H364.234ZM376.656 126.844L374.872 125.941L373.144 129.355L376.934 128.824L376.656 126.844ZM377.828 13.1719V11.1719H374.399L376.087 14.1567L377.828 13.1719ZM416.422 13.1719L417.927 14.4889L420.829 11.1719H416.422V13.1719ZM414.547 118.094L413.025 119.391L413.028 119.395L414.547 118.094ZM436.578 95.5156L435.34 97.0866L435.346 97.0914L435.352 97.0961L436.578 95.5156ZM420.25 84.2656L419.001 85.8274L419.017 85.8401L419.033 85.8525L420.25 84.2656ZM445.562 48.875L447.129 50.1178L449.025 47.7283L446.078 46.9425L445.562 48.875ZM454.547 127.625L455.627 129.308L455.642 129.299L455.656 129.289L454.547 127.625ZM439.234 131.297V129.297C432.469 129.297 424.623 128.021 415.941 126.702C407.332 125.394 397.997 124.062 388.531 124.062V126.062V128.062C397.66 128.062 406.723 129.348 415.34 130.657C423.885 131.955 432.093 133.297 439.234 133.297V131.297ZM388.531 126.062V124.062C384.47 124.062 380.391 124.301 376.379 124.863L376.656 126.844L376.934 128.824C380.734 128.292 384.624 128.062 388.531 128.062V126.062ZM376.656 126.844L378.441 127.747C379.422 125.807 380.233 122.264 380.931 117.894C381.645 113.426 382.28 107.811 382.809 101.523C383.869 88.9445 384.516 73.5759 384.516 59.1094H382.516H380.516C380.516 73.471 379.873 88.7274 378.823 101.188C378.298 107.42 377.674 112.928 376.981 117.263C376.273 121.697 375.531 124.638 374.872 125.941L376.656 126.844ZM382.516 59.1094H384.516C384.516 48.607 384.183 38.5402 383.423 30.3313C383.043 26.2283 382.554 22.5578 381.938 19.5134C381.331 16.5134 380.569 13.9548 379.569 12.187L377.828 13.1719L376.087 14.1567C376.767 15.3577 377.431 17.4085 378.018 20.3069C378.595 23.161 379.068 26.6779 379.44 30.6999C380.184 38.7411 380.516 48.6743 380.516 59.1094H382.516ZM377.828 13.1719V15.1719H416.422V13.1719V11.1719H377.828V13.1719ZM416.422 13.1719L414.917 11.8549C404.037 24.2886 399.578 45.9204 399.578 66.5312H401.578H403.578C403.578 46.2046 408.025 25.8052 417.927 14.4889L416.422 13.1719ZM401.578 66.5312H399.578C399.578 77.2982 400.804 87.9682 403.074 97.1852C405.332 106.356 408.67 114.282 413.025 119.391L414.547 118.094L416.069 116.796C412.299 112.374 409.153 105.144 406.958 96.2289C404.774 87.36 403.578 77.0143 403.578 66.5312H401.578ZM414.547 118.094L413.028 119.395C418.536 125.821 425.248 128.609 431.422 128.609V126.609V124.609C426.502 124.609 420.87 122.398 416.065 116.792L414.547 118.094ZM431.422 126.609V128.609C440.828 128.609 449.203 122.126 449.203 112.703H447.203H445.203C445.203 119.374 439.203 124.609 431.422 124.609V126.609ZM447.203 112.703H449.203C449.203 106.728 445.765 100.109 437.804 93.9352L436.578 95.5156L435.352 97.0961C442.704 102.797 445.203 108.365 445.203 112.703H447.203ZM436.578 95.5156L437.816 93.9446C435.152 91.8462 432.419 90.079 429.703 88.3272C426.97 86.5636 424.244 84.809 421.467 82.6788L420.25 84.2656L419.033 85.8525C421.959 88.0972 424.819 89.9364 427.535 91.6884C430.269 93.4523 432.848 95.1225 435.34 97.0866L436.578 95.5156ZM420.25 84.2656L421.499 82.7039C414.416 77.037 411.391 70.6903 411.391 65.2031H409.391H407.391C407.391 72.216 411.24 79.6193 419.001 85.8274L420.25 84.2656ZM409.391 65.2031H411.391C411.391 60.8566 413.259 56.8854 416.805 53.9635C420.37 51.0264 425.729 49.0781 432.75 49.0781V47.0781V45.0781C425.005 45.0781 418.685 47.2314 414.261 50.8764C409.819 54.5364 407.391 59.6278 407.391 65.2031H409.391ZM432.75 47.0781V49.0781C436.389 49.0781 440.512 49.5982 445.047 50.8075L445.562 48.875L446.078 46.9425C441.238 45.6518 436.767 45.0781 432.75 45.0781V47.0781ZM445.562 48.875L443.996 47.6322C438.35 54.7505 436.141 61.6656 436.141 68.3281H438.141H440.141C440.141 62.6469 441.994 56.5933 447.129 50.1178L445.562 48.875ZM438.141 68.3281H436.141C436.141 79.1396 442.181 88.793 447.82 96.9999C450.701 101.192 453.454 104.967 455.528 108.533C457.61 112.113 458.797 115.147 458.797 117.781H460.797H462.797C462.797 114.048 461.152 110.247 458.986 106.522C456.811 102.783 453.9 98.7848 451.117 94.7345C445.429 86.457 440.141 77.751 440.141 68.3281H438.141ZM460.797 117.781H458.797C458.797 120.539 457.49 123.259 453.437 125.961L454.547 127.625L455.656 129.289C460.51 126.053 462.797 122.211 462.797 117.781H460.797ZM454.547 127.625L453.467 125.942C449.776 128.309 444.976 129.297 439.234 129.297V131.297V133.297C445.368 133.297 451.036 132.253 455.627 129.308L454.547 127.625ZM464.781 126.844L462.997 125.941L461.269 129.355L465.059 128.824L464.781 126.844ZM465.953 13.1719V11.1719H462.524L464.212 14.1567L465.953 13.1719ZM504.547 13.1719L506.052 14.4889L508.954 11.1719H504.547V13.1719ZM502.672 118.094L501.15 119.391L501.153 119.395L502.672 118.094ZM524.703 95.5156L523.465 97.0866L523.471 97.0914L523.477 97.0961L524.703 95.5156ZM508.375 84.2656L507.126 85.8274L507.142 85.8401L507.158 85.8525L508.375 84.2656ZM533.688 48.875L535.254 50.1178L537.15 47.7283L534.203 46.9425L533.688 48.875ZM542.672 127.625L543.752 129.308L543.767 129.299L543.781 129.289L542.672 127.625ZM527.359 131.297V129.297C520.594 129.297 512.748 128.021 504.066 126.702C495.457 125.394 486.122 124.062 476.656 124.062V126.062V128.062C485.785 128.062 494.848 129.348 503.465 130.657C512.01 131.955 520.218 133.297 527.359 133.297V131.297ZM476.656 126.062V124.062C472.595 124.062 468.516 124.301 464.504 124.863L464.781 126.844L465.059 128.824C468.859 128.292 472.749 128.062 476.656 128.062V126.062ZM464.781 126.844L466.566 127.747C467.547 125.807 468.358 122.264 469.056 117.894C469.77 113.426 470.405 107.811 470.934 101.523C471.994 88.9445 472.641 73.5759 472.641 59.1094H470.641H468.641C468.641 73.471 467.998 88.7274 466.948 101.188C466.423 107.42 465.799 112.928 465.106 117.263C464.398 121.697 463.656 124.638 462.997 125.941L464.781 126.844ZM470.641 59.1094H472.641C472.641 48.607 472.308 38.5402 471.548 30.3313C471.168 26.2283 470.679 22.5578 470.063 19.5134C469.456 16.5134 468.694 13.9548 467.694 12.187L465.953 13.1719L464.212 14.1567C464.892 15.3577 465.556 17.4085 466.143 20.3069C466.72 23.161 467.193 26.6779 467.565 30.6999C468.309 38.7411 468.641 48.6743 468.641 59.1094H470.641ZM465.953 13.1719V15.1719H504.547V13.1719V11.1719H465.953V13.1719ZM504.547 13.1719L503.042 11.8549C492.162 24.2886 487.703 45.9204 487.703 66.5312H489.703H491.703C491.703 46.2046 496.15 25.8052 506.052 14.4889L504.547 13.1719ZM489.703 66.5312H487.703C487.703 77.2982 488.929 87.9682 491.199 97.1852C493.457 106.356 496.795 114.282 501.15 119.391L502.672 118.094L504.194 116.796C500.424 112.374 497.278 105.144 495.083 96.2289C492.899 87.36 491.703 77.0143 491.703 66.5312H489.703ZM502.672 118.094L501.153 119.395C506.661 125.821 513.373 128.609 519.547 128.609V126.609V124.609C514.627 124.609 508.995 122.398 504.19 116.792L502.672 118.094ZM519.547 126.609V128.609C528.953 128.609 537.328 122.126 537.328 112.703H535.328H533.328C533.328 119.374 527.328 124.609 519.547 124.609V126.609ZM535.328 112.703H537.328C537.328 106.728 533.89 100.109 525.929 93.9352L524.703 95.5156L523.477 97.0961C530.829 102.797 533.328 108.365 533.328 112.703H535.328ZM524.703 95.5156L525.941 93.9446C523.277 91.8462 520.544 90.079 517.828 88.3272C515.095 86.5636 512.369 84.809 509.592 82.6788L508.375 84.2656L507.158 85.8525C510.084 88.0972 512.944 89.9364 515.66 91.6884C518.394 93.4523 520.973 95.1225 523.465 97.0866L524.703 95.5156ZM508.375 84.2656L509.624 82.7039C502.541 77.037 499.516 70.6903 499.516 65.2031H497.516H495.516C495.516 72.216 499.365 79.6193 507.126 85.8274L508.375 84.2656ZM497.516 65.2031H499.516C499.516 60.8566 501.384 56.8854 504.93 53.9635C508.495 51.0264 513.854 49.0781 520.875 49.0781V47.0781V45.0781C513.13 45.0781 506.81 47.2314 502.386 50.8764C497.944 54.5364 495.516 59.6278 495.516 65.2031H497.516ZM520.875 47.0781V49.0781C524.514 49.0781 528.637 49.5982 533.172 50.8075L533.688 48.875L534.203 46.9425C529.363 45.6518 524.892 45.0781 520.875 45.0781V47.0781ZM533.688 48.875L532.121 47.6322C526.475 54.7505 524.266 61.6656 524.266 68.3281H526.266H528.266C528.266 62.6469 530.119 56.5933 535.254 50.1178L533.688 48.875ZM526.266 68.3281H524.266C524.266 79.1396 530.306 88.793 535.945 96.9999C538.826 101.192 541.579 104.967 543.653 108.533C545.735 112.113 546.922 115.147 546.922 117.781H548.922H550.922C550.922 114.048 549.277 110.247 547.111 106.522C544.936 102.783 542.025 98.7848 539.242 94.7345C533.554 86.457 528.266 77.751 528.266 68.3281H526.266ZM548.922 117.781H546.922C546.922 120.539 545.615 123.259 541.562 125.961L542.672 127.625L543.781 129.289C548.635 126.053 550.922 122.211 550.922 117.781H548.922ZM542.672 127.625L541.592 125.942C537.901 128.309 533.101 129.297 527.359 129.297V131.297V133.297C533.493 133.297 539.161 132.253 543.752 129.308L542.672 127.625ZM582.047 127.156L581.813 129.143L581.93 129.156H582.047V127.156ZM556.656 127.156V129.156H556.773L556.89 129.143L556.656 127.156ZM556.656 119.578L556.89 117.592L556.773 117.578H556.656V119.578ZM582.047 119.578V117.578H581.93L581.813 117.592L582.047 119.578ZM582.516 127.156V125.156H582.047V127.156V129.156H582.516V127.156ZM582.047 127.156L582.281 125.17C578.299 124.702 575.74 124.355 573.816 124.117C571.917 123.882 570.619 123.75 569.312 123.75V125.75V127.75C570.35 127.75 571.435 127.853 573.325 128.086C575.19 128.317 577.826 128.673 581.813 129.143L582.047 127.156ZM569.312 125.75V123.75C568.005 123.75 566.725 123.882 564.846 124.117C562.945 124.355 560.4 124.702 556.423 125.17L556.656 127.156L556.89 129.143C560.881 128.673 563.493 128.317 565.342 128.086C567.212 127.852 568.276 127.75 569.312 127.75V125.75ZM556.656 127.156V125.156H556.188V127.156V129.156H556.656V127.156ZM556.188 127.156V125.156C555.737 125.156 555.489 124.993 555.305 124.756C555.079 124.466 554.906 123.984 554.906 123.406H552.906H550.906C550.906 124.704 551.28 126.096 552.148 127.212C553.058 128.382 554.451 129.156 556.188 129.156V127.156ZM552.906 123.406H554.906C554.906 122.519 555.134 122.129 555.29 121.965C555.431 121.817 555.777 121.578 556.656 121.578V119.578V117.578C555.036 117.578 553.506 118.042 552.398 119.203C551.304 120.347 550.906 121.872 550.906 123.406H552.906ZM556.656 119.578L556.423 121.564C560.4 122.032 562.945 122.38 564.846 122.617C566.725 122.852 568.005 122.984 569.312 122.984V120.984V118.984C568.276 118.984 567.212 118.882 565.342 118.648C563.493 118.417 560.881 118.061 556.89 117.592L556.656 119.578ZM569.312 120.984V122.984C570.619 122.984 571.917 122.853 573.816 122.618C575.74 122.38 578.299 122.033 582.281 121.564L582.047 119.578L581.813 117.592C577.826 118.061 575.19 118.417 573.325 118.648C571.435 118.882 570.35 118.984 569.312 118.984V120.984ZM582.047 119.578V121.578H582.516V119.578V117.578H582.047V119.578ZM582.516 119.578V121.578C582.974 121.578 583.252 121.749 583.458 122.005C583.7 122.305 583.875 122.782 583.875 123.328H585.875H587.875C587.875 121.999 587.464 120.602 586.573 119.495C585.646 118.345 584.245 117.578 582.516 117.578V119.578ZM585.875 123.328H583.875C583.875 123.93 583.691 124.427 583.45 124.73C583.246 124.987 582.972 125.156 582.516 125.156V127.156V129.156C584.246 129.156 585.653 128.388 586.582 127.219C587.473 126.096 587.875 124.68 587.875 123.328H585.875ZM634.703 125.984L635.188 124.044L635.18 124.042L634.703 125.984ZM594.312 62.7812L596.292 63.0641L596.293 63.0564L594.312 62.7812ZM610.016 8.79688L611.312 7.2738L605.458 2.29163L608.141 9.49509L610.016 8.79688ZM655.797 16.1406L655.658 14.1455L655.621 14.148L655.584 14.152L655.797 16.1406ZM674.469 8.71875L676.12 7.59083L674.735 5.56174L673.029 7.33048L674.469 8.71875ZM632.281 36.8438L631.352 38.6148L631.362 38.6199L631.371 38.6248L632.281 36.8438ZM620.25 82.625L618.578 83.7226L622.147 81.9925L620.25 82.625ZM639.625 55.5156L639.897 53.5343L639.866 53.5299L639.834 53.5266L639.625 55.5156ZM671.422 52.7031L673.36 52.2091L672.385 48.3841L669.877 51.4326L671.422 52.7031ZM636.891 66.2969L635.68 67.8885L635.681 67.8898L636.891 66.2969ZM625.875 83.0938L627.699 82.273L627.694 82.2622L627.689 82.2515L625.875 83.0938ZM672.672 94.4219L674.622 93.9762L674.037 91.4206L671.727 92.6592L672.672 94.4219ZM644.234 127.156V125.156C641.27 125.156 638.152 124.785 635.188 124.044L634.703 125.984L634.218 127.925C637.505 128.746 640.949 129.156 644.234 129.156V127.156ZM634.703 125.984L635.18 124.042C610.139 117.894 595.688 94.6904 595.688 70.9844H593.688H591.688C591.688 96.1846 607.08 121.262 634.226 127.927L634.703 125.984ZM593.688 70.9844H595.688C595.688 68.3635 595.912 65.7256 596.292 63.0641L594.312 62.7812L592.333 62.4984C591.932 65.3057 591.688 68.1365 591.688 70.9844H593.688ZM594.312 62.7812L596.293 63.0564C597.593 53.6985 601.806 47.1782 605.925 40.7888C609.999 34.4702 614.125 28.1 614.125 19.5H612.125H610.125C610.125 26.7594 606.712 32.186 602.563 38.6214C598.46 44.9858 593.766 52.1765 592.332 62.5061L594.312 62.7812ZM612.125 19.5H614.125C614.125 16.0279 613.446 12.2758 611.89 8.09866L610.016 8.79688L608.141 9.49509C609.554 13.2867 610.125 16.5659 610.125 19.5H612.125ZM610.016 8.79688L608.719 10.32C609.963 11.3782 612.204 12.3458 614.778 13.208C617.452 14.1034 620.793 14.9815 624.489 15.7545C631.876 17.2993 640.825 18.4531 648.922 18.4531V16.4531V14.4531C641.16 14.4531 632.491 13.3414 625.308 11.8392C621.719 11.0888 618.536 10.2482 616.049 9.41506C613.462 8.54877 611.904 7.77801 611.312 7.2738L610.016 8.79688ZM648.922 16.4531V18.4531C651.384 18.4531 653.726 18.3739 656.01 18.1292L655.797 16.1406L655.584 14.152C653.493 14.3761 651.304 14.4531 648.922 14.4531V16.4531ZM655.797 16.1406C655.936 18.1358 655.936 18.1358 655.937 18.1357C655.937 18.1357 655.938 18.1357 655.938 18.1356C655.939 18.1355 655.941 18.1355 655.942 18.1354C655.945 18.1352 655.948 18.1349 655.953 18.1346C655.961 18.134 655.973 18.1331 655.987 18.132C656.016 18.1297 656.057 18.1265 656.108 18.122C656.211 18.1132 656.359 18.0996 656.546 18.0802C656.921 18.0413 657.455 17.9788 658.113 17.8829C659.427 17.6914 661.246 17.3649 663.276 16.8229C667.272 15.756 672.365 13.7816 675.908 10.107L674.469 8.71875L673.029 7.33048C670.244 10.2184 666.002 11.955 662.244 12.9583C660.397 13.4515 658.734 13.75 657.536 13.9247C656.938 14.0119 656.459 14.0678 656.133 14.1016C655.971 14.1184 655.847 14.1298 655.766 14.1367C655.726 14.1402 655.696 14.1425 655.678 14.1439C655.669 14.1447 655.662 14.1451 655.659 14.1454C655.657 14.1455 655.657 14.1456 655.656 14.1456C655.656 14.1456 655.656 14.1456 655.657 14.1456C655.657 14.1455 655.657 14.1455 655.657 14.1455C655.658 14.1455 655.658 14.1455 655.797 16.1406ZM674.469 8.71875L672.817 9.84667C674.75 12.6764 675.594 15.8653 675.594 19.1875H677.594H679.594C679.594 15.1659 678.563 11.1674 676.12 7.59083L674.469 8.71875ZM677.594 19.1875H675.594C675.594 29.4224 666.635 40.0781 651.891 40.0781V42.0781V44.0781C668.709 44.0781 679.594 31.7651 679.594 19.1875H677.594ZM651.891 42.0781V40.0781C646.395 40.0781 640.142 38.6139 633.191 35.0627L632.281 36.8438L631.371 38.6248C638.795 42.4174 645.668 44.0781 651.891 44.0781V42.0781ZM632.281 36.8438L633.21 35.0727C628.457 32.5792 623.686 30.5469 619.625 30.5469V32.5469V34.5469C622.595 34.5469 626.574 36.1083 631.352 38.6148L632.281 36.8438ZM619.625 32.5469V30.5469C616.015 30.5469 613.005 32.313 611.003 35.6736C609.07 38.9175 608.094 43.5899 608.094 49.5781H610.094H612.094C612.094 43.9258 613.032 40.0825 614.439 37.721C615.776 35.476 617.532 34.5469 619.625 34.5469V32.5469ZM610.094 49.5781H608.094C608.094 60.0412 611.643 73.1579 618.578 83.7226L620.25 82.625L621.922 81.5274C615.42 71.6233 612.094 59.2713 612.094 49.5781H610.094ZM620.25 82.625L622.147 81.9925C621.033 78.6502 620.453 75.3487 620.453 72.2344H618.453H616.453C616.453 75.8388 617.123 79.5686 618.353 83.2575L620.25 82.625ZM618.453 72.2344H620.453C620.453 67.879 621.615 64.1717 623.938 61.5759C626.226 59.0187 629.873 57.2812 635.406 57.2812V55.2812V53.2812C628.986 53.2812 624.157 55.3328 620.957 58.9085C617.792 62.4455 616.453 67.2148 616.453 72.2344H618.453ZM635.406 55.2812V57.2812C636.657 57.2812 637.992 57.3548 639.416 57.5046L639.625 55.5156L639.834 53.5266C638.289 53.3639 636.812 53.2812 635.406 53.2812V55.2812ZM639.625 55.5156L639.353 57.497C642.344 57.9084 645.374 58.7463 648.624 59.5388C651.797 60.3125 655.145 61.0312 658.453 61.0312V59.0312V57.0312C655.667 57.0312 652.726 56.4219 649.571 55.6526C646.493 54.9021 643.156 53.9823 639.897 53.5343L639.625 55.5156ZM658.453 59.0312V61.0312C663.523 61.0312 668.566 59.3231 672.966 53.9737L671.422 52.7031L669.877 51.4326C666.309 55.7706 662.446 57.0312 658.453 57.0312V59.0312ZM671.422 52.7031L669.484 53.1971C670.48 57.1048 670.984 60.2827 670.984 62.9375H672.984H674.984C674.984 59.811 674.395 56.2702 673.36 52.2091L671.422 52.7031ZM672.984 62.9375H670.984C670.984 67.1952 669.835 69.9643 668.152 71.6696C666.471 73.3739 663.98 74.2969 660.719 74.2969V76.2969V78.2969C664.724 78.2969 668.365 77.1496 671 74.4789C673.634 71.8092 674.984 67.8986 674.984 62.9375H672.984ZM660.719 76.2969V74.2969C654.616 74.2969 646.367 70.9805 638.1 64.704L636.891 66.2969L635.681 67.8898C644.29 74.4258 653.384 78.2969 660.719 78.2969V76.2969ZM636.891 66.2969L638.102 64.7052C634.366 61.8628 631.125 60.4688 628.297 60.4688V62.4688V64.4688C629.844 64.4688 632.228 65.2622 635.68 67.8885L636.891 66.2969ZM628.297 62.4688V60.4688C625.734 60.4688 623.748 61.6955 622.495 63.6749C621.309 65.5503 620.828 68.0051 620.828 70.5938H622.828H624.828C624.828 68.4168 625.246 66.8091 625.876 65.8134C626.44 64.9217 627.188 64.4688 628.297 64.4688V62.4688ZM622.828 70.5938H620.828C620.828 74.6034 621.929 79.3431 624.061 83.936L625.875 83.0938L627.689 82.2515C625.759 78.0944 624.828 73.9279 624.828 70.5938H622.828ZM625.875 83.0938L624.051 83.9145C626.984 90.4312 630.832 95.1845 635.425 98.3031C640.026 101.427 645.253 102.828 650.797 102.828V100.828V98.8281C645.95 98.8281 641.529 97.6124 637.672 94.9938C633.808 92.3701 630.391 88.2563 627.699 82.273L625.875 83.0938ZM650.797 100.828V102.828C658.033 102.828 665.862 100.342 673.617 96.1846L672.672 94.4219L671.727 92.6592C664.325 96.6272 657.155 98.8281 650.797 98.8281V100.828ZM672.672 94.4219L670.722 94.8675C671.32 97.4833 671.609 99.8321 671.609 102.078H673.609H675.609C675.609 99.4804 675.274 96.8292 674.622 93.9762L672.672 94.4219ZM673.609 102.078H671.609C671.609 109.595 668.383 115.293 663.407 119.161C658.382 123.068 651.494 125.156 644.234 125.156V127.156V129.156C652.209 129.156 660.009 126.87 665.862 122.319C671.765 117.73 675.609 110.889 675.609 102.078H673.609Z" fill="#BC6C25" mask="url(#path-1-outside-1_49_2)"/>
</g>
<defs>
<filter id="filter0_d_49_2" x="0.734619" y="0.390625" width="678.859" height="144.938" filterUnits="userSpaceOnUse" color-interpolation-filters="sRGB">
<feFlood flood-opacity="0" result="BackgroundImageFix"/>
<feColorMatrix in="SourceAlpha" type="matrix" values="0 0 0 0 0 0 0 0 0 0 0 0 0 0 0 0 0 0 127 0" result="hardAlpha"/>
<feOffset dx="-10" dy="10"/>
<feComposite in2="hardAlpha" operator="out"/>
<feColorMatrix type="matrix" values="0 0 0 0 0.737255 0 0 0 0 0.423529 0 0 0 0 0.145098 0 0 0 1 0"/>
<feBlend mode="normal" in2="BackgroundImageFix" result="effect1_dropShadow_49_2"/>
<feBlend mode="normal" in="SourceGraphic" in2="effect1_dropShadow_49_2" result="shape"/>
</filter>
</defs>
</svg>
